<svg width="26" height="26" viewBox="0 0 26 26" fill="none" xmlns="http://www.w3.org/2000/svg">
<path fill-rule="evenodd" clip-rule="evenodd" d="M18.2948 16.3286C21.3258 12.3388 21.0203 6.62368 17.3783 2.98164C13.4028 -0.993881 6.95716 -0.993881 2.98164 2.98164C-0.993881 6.95716 -0.993881 13.4028 2.98164 17.3783C6.62413 21.0208 12.3402 21.3259 16.3301 18.2937L23.6302 25.5934L23.7724 25.7176C24.3165 26.1318 25.0965 26.0904 25.5934 25.5934C26.1355 25.0513 26.1355 24.1724 25.5934 23.6302L18.2948 16.3286ZM4.29045 4.29038C7.54315 1.03768 12.8168 1.03768 16.0695 4.29038C19.3222 7.54308 19.3222 12.8168 16.0695 16.0695C12.8168 19.3222 7.54315 19.3222 4.29045 16.0695C1.03775 12.8168 1.03775 7.54308 4.29045 4.29038Z" fill="#3C3C43" fill-opacity="0.6"/>
</svg>
